<?xml version="1.0" encoding="utf-8"?>
<svg xmlns="http://www.w3.org/2000/svg" viewBox="570.927 488.746 932.2056 1082.504" width="932.206px" height="1082.5px" preserveAspectRatio="none"><defs><linearGradient id="paint0_linear_4250_226" x1="1037.03" y1="478.446" x2="1037.03" y2="1581.55" gradientUnits="userSpaceOnUse"><stop stop-color="#DF5043"/><stop offset="1" stop-color="#EB6E3E"/></linearGradient></defs><path d="M747.61 669.919L845.936 499.614C849.819 492.889 856.994 488.746 864.76 488.746C872.525 488.746 879.701 492.889 883.584 499.614L1021.17 737.929C1028.22 750.135 1045.84 750.135 1052.89 737.929L1190.48 499.614C1194.36 492.889 1201.54 488.746 1209.3 488.746C1217.07 488.746 1224.24 492.889 1228.13 499.614L1326.45 669.919C1332.44 680.29 1332.44 693.068 1326.45 703.438L1002.66 1264.27C995.855 1276.05 995.855 1290.57 1002.66 1302.35L1021.17 1334.42C1028.22 1346.63 1045.84 1346.63 1052.89 1334.42L1364.33 794.988C1367.87 788.855 1374.41 785.077 1381.49 785.077C1388.58 785.077 1395.12 788.855 1398.66 794.988L1498.64 968.165C1504.63 978.536 1504.63 991.314 1498.64 1001.68L1179.48 1554.49C1173.49 1564.87 1162.43 1571.25 1150.45 1571.25H923.611C911.636 1571.25 900.57 1564.87 894.582 1554.49L575.418 1001.68C569.43 991.314 569.43 978.536 575.418 968.165L675.402 794.988C678.943 788.855 685.486 785.077 692.567 785.077C699.649 785.077 706.192 788.855 709.733 794.988L848.983 1036.18C856.03 1048.38 873.647 1048.38 880.695 1036.18L899.212 1004.1C906.015 992.319 906.015 977.803 899.212 966.021L747.61 703.438C741.623 693.068 741.623 680.29 747.61 669.919Z" fill="url(#paint0_linear_4250_226)" stroke="#EB6E3E" stroke-width="20.6" id="object-0" transform="matrix(0.9999999999999999, 0, 0, 0.9999999999999999, 0, -5.684341886080802e-14)"/></svg>