<svg width="954" height="1104" viewBox="0 0 954 1104" fill="none" xmlns="http://www.w3.org/2000/svg">
<path d="M630.478 21.614C634.361 14.8889 641.537 10.746 649.302 10.746C657.068 10.746 664.243 14.8889 668.126 21.614L766.452 191.919C772.44 202.29 772.44 215.068 766.452 225.438L442.657 786.267C435.855 798.049 435.855 812.566 442.657 824.348L461.175 856.422C468.222 868.628 485.84 868.628 492.887 856.422L804.329 316.988C807.87 310.855 814.413 307.077 821.495 307.077C828.576 307.077 835.12 310.855 838.66 316.988L938.644 490.165C944.632 500.536 944.632 513.314 938.644 523.685L619.48 1076.49C613.492 1086.87 602.426 1093.25 590.451 1093.25H363.611C351.636 1093.25 340.57 1086.87 334.582 1076.49L15.4177 523.685C9.43005 513.314 9.43005 500.536 15.4177 490.165L115.402 316.988C118.943 310.855 125.486 307.077 132.567 307.077C139.649 307.077 146.192 310.855 149.733 316.988L288.983 558.175C296.03 570.381 313.647 570.381 320.695 558.175L339.212 526.102C346.015 514.319 346.015 499.803 339.212 488.021L187.61 225.438C181.623 215.068 181.623 202.29 187.61 191.919L285.936 21.614C289.819 14.8889 296.994 10.746 304.76 10.746C312.525 10.746 319.701 14.8889 323.584 21.614L461.175 259.929C468.222 272.135 485.84 272.135 492.887 259.929L630.478 21.614Z" fill="url(#paint0_linear_4250_227)" stroke="#EB6E3E" stroke-width="20.6"/>
<defs>
<linearGradient id="paint0_linear_4250_227" x1="477.031" y1="0.446045" x2="477.031" y2="1103.55" gradientUnits="userSpaceOnUse">
<stop stop-color="#DF5043"/>
<stop offset="1" stop-color="#EB6E3E"/>
</linearGradient>
</defs>
</svg>
