<svg width="939" height="796" viewBox="0 0 939 796" fill="none" xmlns="http://www.w3.org/2000/svg">
<path d="M826.625 21.0563L922.854 187.703C929.699 199.557 929.699 214.163 922.854 226.017L608.405 770.571C603.348 779.329 594.002 784.724 583.889 784.724H354.922C344.808 784.724 335.463 779.329 330.405 770.571L15.9564 226.017C9.11116 214.163 9.11116 199.557 15.9564 187.703L112.185 21.0563C120.003 7.51795 139.544 7.51795 147.362 21.0563L451.297 547.403C459.346 561.341 479.464 561.341 487.513 547.403L505.955 515.466C511.121 506.52 511.121 495.498 505.955 486.553L355.588 226.152C348.743 214.297 348.743 199.691 355.588 187.837L451.817 21.1907C459.635 7.65238 479.176 7.65237 486.993 21.1907L621.074 253.388C629.123 267.326 649.242 267.326 657.29 253.388L791.449 21.0563C799.266 7.51796 818.807 7.51796 826.625 21.0563Z" fill="url(#paint0_linear_4257_3)" stroke="#EB6E3E" stroke-width="20.6"/>
<defs>
<linearGradient id="paint0_linear_4257_3" x1="469.405" y1="-30" x2="469.405" y2="795.024" gradientUnits="userSpaceOnUse">
<stop stop-color="#DF5043"/>
<stop offset="1" stop-color="#EB6E3E"/>
</linearGradient>
</defs>
</svg>
